<?xml version="1.0" encoding="utf-8"?>
<!-- Generator: Adobe Illustrator 26.0.3, SVG Export Plug-In . SVG Version: 6.00 Build 0)  -->
<svg version="1.0" id="Calque_1" xmlns="http://www.w3.org/2000/svg" xmlns:xlink="http://www.w3.org/1999/xlink" x="0px" y="0px"
	 viewBox="0 0 512 512" style="enable-background:new 0 0 512 512;" xml:space="preserve">
<path style="fill:#3541A0;" d="M383.63,102.23c0.04-28.53,23.35-51.77,51.91-51.73c28.54,0.04,51.77,23.34,51.74,51.91
	c-0.03,28.53-23.36,51.78-51.92,51.74C406.85,154.11,383.59,130.77,383.63,102.23z"/>
<path style="fill:#3541A0;" d="M345.43,200.15c-43.78-0.19-85.23,1.25-124.08,3.79c-32.53,2.13-57.81,27.04-57.81,57.22
	c0,30.18,25.27,55.1,57.79,57.22c38.55,2.52,79.67,3.95,123.09,3.79c38.57-0.14,75.29-1.53,109.97-3.8
	c32.46-2.13,57.61-27.09,57.61-57.22c0-30.12-25.15-55.09-57.6-57.22C420.01,201.7,383.62,200.31,345.43,200.15L345.43,200.15z"/>
<path style="fill:#4452C0;" d="M424.63,307.81c-25.61-1.87-52.71-3.02-81.16-3.15c-32.61-0.16-63.5,1.03-92.43,3.14
	c-24.22,1.7-43.03,22.41-43.05,47.41c0.01,25,18.82,45.73,43.04,47.43c28.72,2.09,59.34,3.28,91.67,3.14
	c28.73-0.12,56.09-1.27,81.92-3.15c25.42-1.84,44.58-24.56,42.79-50.74c-1.61-23.61-19.86-42.4-42.79-44.07L424.63,307.81z"/>
<path style="fill:#5161CA;" d="M337.74,455.74v-0.04h3.19c18.43-0.04,35.93-0.8,52.48-2.01c16.29-1.18,28.56-15.74,27.41-32.51
	c-1.04-15.12-12.72-27.16-27.41-28.23c-16.39-1.18-33.76-1.93-51.99-2.01c-20.89-0.09-40.67,0.67-59.23,2.01
	c-15.52,1.09-27.57,14.37-27.59,30.39v0.21c0,0.93,0.04,1.85,0.12,2.73c0.7,12.21,6.95,59.39,60.37,77.62
	C315.1,503.91,287.51,457.39,337.74,455.74L337.74,455.74z"/>
<path style="fill:#4452C0;" d="M328.14,54.31C321.7,23.01,291.1,2.86,259.79,9.3c-26.8,5.52-46.08,29.05-46.2,56.42
	c0,1.3,0.05,2.64,0.17,4.05c-19.07,2.02-32.89,19.11-30.87,38.18c1.87,17.67,16.79,31.08,34.56,31.07h4.05
	c-0.09-1.28-0.19-2.55-0.19-3.86c0-27.7,22.45-50.15,50.15-50.15s50.15,22.45,50.15,50.15c0,1.3-0.1,2.58-0.19,3.86h4.05
	c23.41,0.06,42.44-18.86,42.5-42.27C368.03,74.28,350.56,55.67,328.14,54.31L328.14,54.31z"/>
<circle style="fill:#3541A0;" cx="271.46" cy="135.16" r="42.44"/>
<g>
	<path style="fill:#FAFAFA;" d="M271.46,162.16c-2.13,0-3.86-1.73-3.86-3.86v-46.29c0-2.13,1.73-3.86,3.86-3.86
		c2.13,0,3.86,1.73,3.86,3.86v46.29C275.32,160.44,273.59,162.16,271.46,162.16z"/>
	<path style="fill:#FAFAFA;" d="M271.46,162.16c-1.02,0-2.01-0.4-2.73-1.13L253.3,145.6c-1.48-1.53-1.44-3.97,0.09-5.46
		c1.5-1.44,3.87-1.44,5.36,0l12.71,12.7l12.7-12.7c1.53-1.48,3.97-1.44,5.46,0.09c1.44,1.5,1.44,3.87,0,5.36l-15.43,15.43
		C273.46,161.76,272.48,162.16,271.46,162.16z"/>
</g>
<path style="fill:#2D399A;" d="M249.11,207.93v-5.59c-0.01-10.89-0.01-21.78-0.02-32.67c-0.04-5.17-0.04-10.33-0.15-15.5
	c-0.25-11.55-9.33-20.64-20.91-20.81c-10.54-0.15-21.08-0.12-31.62-0.17c-2.07,0.05-4.14,0.15-6.21,0.15
	c-55.16,0-110.32,0-165.48,0.02c-2.69,0-5.45-0.1-8.05,0.45c-10.25,2.17-16.64,10.52-16.65,21.73C-0.01,223.76,0,291.99,0,360.21
	c0,0.62,0,1.24,0.03,1.86c0.44,9.2,6.19,16.47,14.96,19.3c3.06,0.99,6.13,0.9,9.23,0.91c37.94,0.07,75.89,0.12,113.83,0.17
	c29.04-0.05,58.09-0.49,87.12,0c14.06,0.24,24.07-9.94,23.94-23.92c-0.12-12.85-0.18-25.71-0.21-38.56
	c-0.09-34.86,0.05-69.72,0.06-104.58C248.96,212.9,249.05,210.42,249.11,207.93z M137.23,216.89v102.84h-25.34V217.07H74.1v-21.14
	h100.81v20.96H137.23z"/>
<polygon style="fill:#FFFFFF;" points="174.91,195.93 174.91,216.89 137.23,216.89 137.23,319.73 111.89,319.73 111.89,217.07 
	74.1,217.07 74.1,195.93 "/>
</svg>
